<svg width="24" height="25" viewBox="0 0 24 25" fill="none" xmlns="http://www.w3.org/2000/svg">
<path d="M23.0082 4.96071C22.8726 4.75011 22.6862 4.57698 22.4662 4.45723C22.2462 4.33748 21.9997 4.27495 21.7492 4.27539H8.32511C8.03619 4.27537 7.75341 4.35879 7.51077 4.51562C7.26812 4.67245 7.07593 4.89602 6.95729 5.15946L0.882294 18.6595C0.779445 18.8878 0.735421 19.1383 0.75424 19.3881C0.773059 19.6379 0.854122 19.8789 0.990031 20.0893C1.12594 20.2997 1.31237 20.4727 1.53231 20.5926C1.75225 20.7124 1.9987 20.7753 2.24917 20.7754H15.6732C15.9621 20.7754 16.2449 20.692 16.4876 20.5352C16.7302 20.3783 16.9224 20.1548 17.041 19.8913L23.116 6.39133C23.219 6.16285 23.2631 5.9122 23.2443 5.66229C23.2254 5.41238 23.1443 5.17118 23.0082 4.96071ZM15.6732 19.2754H2.24917L8.32511 5.77539H21.7492L15.6732 19.2754Z" fill="#61677A"/>
</svg>
